<?xml version="1.0" encoding="iso-8859-1"?>
<!-- Generator: Adobe Illustrator 21.0.0, SVG Export Plug-In . SVG Version: 6.00 Build 0)  -->
<svg xmlns="http://www.w3.org/2000/svg" xmlns:xlink="http://www.w3.org/1999/xlink" version="1.1" id="Capa_1" x="0px" y="0px" viewBox="0 0 511.868 511.868" style="enable-background:new 0 0 511.868 511.868;" xml:space="preserve" width="512" height="512">
<g>
	<path d="M427.259,279.466c-11.673-33.91-27.972-78.867-39.333-100.467c-9.166-17.428-19.086-26.367-27.186-30.931   c17.778-15.963,28.046-38.645,28.046-63.101C388.786,38.116,350.671,0,303.819,0c-17.33,0-33.763,5.104-47.886,14.786   C241.811,5.104,225.378,0,208.049,0c-46.851,0-84.967,38.116-84.967,84.967c0,24.473,10.284,47.173,28.087,63.138   c-3.283,1.849-6.868,4.415-10.581,7.964c-6.429-2.031-13.288-1.753-19.576,0.851c-7.045,2.917-12.524,8.406-15.426,15.456   c-4.651,11.293-1.558,23.855,6.941,31.742c-4.145,10.035-8.803,22.063-13.888,35.87c-1.427,3.875,0.557,8.173,4.431,9.6   c0.852,0.314,1.725,0.462,2.583,0.462c3.044,0,5.903-1.872,7.017-4.895c4.71-12.787,9.039-24.005,12.916-33.478   c5.879,2.636,12.892,5.626,20.844,8.739c0.44,1.17,1.175,2.246,2.203,3.103c18.014,15.022,38.513,26.491,59.624,35.248   L173.765,360.63c-0.367,0.808-0.596,1.693-0.654,2.629l-7.239,115.836c-0.624,9.992-8.956,17.82-18.968,17.82   c-10.012,0-18.343-7.828-18.968-17.82l-7.239-115.836c-0.066-1.052-0.353-2.078-0.844-3.012l-17.899-34.055   c-6.764-12.87-7.932-28.127-3.205-41.859c1.195-3.47,2.487-7.197,3.856-11.108c1.364-3.897-0.69-8.163-4.587-9.527   c-3.898-1.367-8.163,0.69-9.527,4.587c-1.378,3.936-2.679,7.688-3.88,11.181c-6.064,17.613-4.566,37.179,4.108,53.682l17.155,32.64   l7.14,114.239c1.116,17.854,16.003,31.841,33.892,31.841c17.889,0,32.777-13.986,33.892-31.841l7.168-114.708l34.256-101.167   c25.23,9.012,50.741,14.462,73.431,17.732l28.253,83.436l7.168,114.708c1.116,17.854,16.003,31.841,33.892,31.841   c17.889,0,32.776-13.986,33.892-31.841l3.381-54.096c0.257-4.121-2.874-7.67-6.996-7.928c-4.103-0.255-7.671,2.875-7.928,6.996   l-3.381,54.096c-0.625,9.992-8.956,17.82-18.968,17.82c-10.012,0-18.344-7.828-18.968-17.82l-7.239-115.836   c-0.057-0.917-0.28-1.787-0.639-2.583l-25.978-76.721c17.635,1.892,32.748,2.501,43.509,2.63c0.116,0.002,0.233,0.003,0.349,0.003   c15.126,0,27.599-11.744,28.471-26.883c0.438-7.612-2.122-14.933-7.207-20.614c-5.123-5.722-12.183-9.099-19.878-9.507   c-8.088-0.429-16.284-1.217-24.359-2.341c-1.19-0.165-2.351-0.033-3.418,0.328c-19.583,4.87-41.209,6.704-64.296,5.431   c-4.132-0.243-7.649,2.931-7.876,7.054c-0.227,4.123,2.932,7.649,7.054,7.876c5.016,0.276,9.968,0.414,14.856,0.414   c18.793,0,36.602-2.052,53.139-6.097c8.002,1.072,16.101,1.842,24.106,2.267c3.695,0.197,7.079,1.812,9.53,4.549   c2.413,2.696,3.628,6.17,3.42,9.782c-0.414,7.202-6.349,12.789-13.546,12.789c-0.056,0-0.111-0.001-0.167-0.001   c-31.374-0.377-101.169-4.925-159.938-34.986c12.077,3.191,24.875,5.993,38.091,8.042c0.388,0.06,0.773,0.089,1.154,0.089   c3.623,0,6.807-2.64,7.379-6.332c0.632-4.081-2.163-7.902-6.243-8.534c-47.286-7.332-89.24-24.686-110.041-34.379   c-6.592-3.071-9.587-10.744-6.818-17.466c1.377-3.345,3.977-5.95,7.32-7.335c3.395-1.405,7.145-1.395,10.56,0.028   c0.896,0.373,1.794,0.775,2.708,1.101c29.502,11.958,58.291,18.072,83.588,20.895c0.419,0.083,0.844,0.136,1.276,0.146   c18.061,1.947,34.299,2.226,47.685,1.786c35.748-1.175,59-7.45,59.972-7.717c3.982-1.092,6.325-5.205,5.234-9.188   c-1.092-3.982-5.208-6.327-9.187-5.234c-0.306,0.084-10.995,2.923-28.728,5.037c2.351-3.214,5.051-6.176,8.07-8.79   c2.416-2.078,3.966-4.78,3.183-8.07c-0.792-3.33-3.852-5.749-7.275-5.749c-38.606,0-70.014-31.408-70.014-70.014   c0-21.606,9.751-41.672,26.753-55.053c12.436-9.788,27.395-14.961,43.262-14.961c38.606,0,70.014,31.408,70.014,70.014   c0,24.389-12.398,46.643-33.165,59.528c-2.812,1.745-4.156,5.253-3.237,8.431c0.93,3.213,4.176,5.772,7.585,5.4   c1.317,0.057,15.827,1.303,29.676,27.634c11.496,21.858,29.01,71.017,38.427,98.374c4.727,13.731,3.559,28.988-3.205,41.858   l-17.899,34.055c-0.491,0.934-0.778,1.96-0.844,3.012l-1.991,31.854c-0.258,4.121,2.874,7.67,6.996,7.928   c0.159,0.01,0.316,0.015,0.474,0.015c3.916,0,7.207-3.048,7.455-7.01l1.891-30.258l17.155-32.64   C431.825,316.645,433.322,297.079,427.259,279.466z M281.455,179.238c-14.743,0.902-32.242,0.972-51.467-0.861   c-1.741-3.463-3.778-6.783-6.085-9.903c11.485-2.149,22.332-6.655,32.076-13.343c9.475,6.481,20.313,11.11,32,13.322   C285.476,171.837,283.291,175.453,281.455,179.238z M243.891,145.132c-10.786,6.465-23.017,9.849-35.842,9.849   c-3.131,0-5.93,1.951-7.014,4.888c-1.084,2.937-0.223,6.238,2.157,8.272l0.779,0.671c2.491,2.156,4.765,4.561,6.813,7.145   c-17.239-2.712-35.482-7.06-54.097-13.719c5.51-3.616,9.432-3.895,10.153-3.913c1.872,0.201,3.382-0.352,4.904-1.495   c1.976-1.482,3.092-3.843,2.983-6.31c-0.109-2.468-1.429-4.722-3.528-6.024c-20.766-12.885-33.164-35.139-33.164-59.528   c0-38.606,31.408-70.014,70.014-70.014c12.805,0,25.019,3.374,35.793,9.82c-15.987,15.88-24.989,37.324-24.989,60.194   C218.852,108.453,228.436,129.738,243.891,145.132z"/>
	<path d="M256.47,84.569c0,6.684,5.438,12.122,12.121,12.122c6.684,0,12.122-5.438,12.122-12.122   c0-6.684-5.438-12.121-12.122-12.121C261.908,72.448,256.47,77.885,256.47,84.569z"/>
	<path d="M329.547,63.157c-6.684,0-12.122,5.438-12.122,12.122c0,6.684,5.438,12.121,12.122,12.121   c6.684,0,12.122-5.437,12.122-12.121C341.669,68.595,336.231,63.157,329.547,63.157z"/>
</g>















</svg>
